HIERARCHY
ROOT mixamorig:Hips
{
	OFFSET 0.000000 201.639420 0.000000
	CHANNELS 6 Xposition Yposition Zposition Xrotation Yrotation Zrotation
	JOINT mixamorig:Spine
	{
		OFFSET 0.006200 19.524994 -2.481800
		CHANNELS 3 Xrotation Yrotation Zrotation
		JOINT mixamorig:Spine1
		{
			OFFSET -0.000900 22.835007 -2.825400
			CHANNELS 3 Xrotation Yrotation Zrotation
			JOINT mixamorig:Spine2
			{
				OFFSET -0.020600 26.552490 -3.193300
				CHANNELS 3 Xrotation Yrotation Zrotation
				JOINT mixamorig:Neck
				{
					OFFSET -0.060000 30.701813 1.352200
					CHANNELS 3 Xrotation Yrotation Zrotation
					JOINT mixamorig:Head
					{
						OFFSET -0.087200 22.547607 3.670900
						CHANNELS 3 Xrotation Yrotation Zrotation
						JOINT mixamorig:HeadTop_End
						{
							OFFSET -0.830600 40.355194 7.893500
							CHANNELS 3 Xrotation Yrotation Zrotation
							End Site
							{
								OFFSET 0.000000 30.592346 0.000000
							}
						}
						JOINT mixamorig:RightEye
						{
							OFFSET -6.302100 18.118591 16.197100
							CHANNELS 3 Xrotation Yrotation Zrotation
							End Site
							{
								OFFSET 0.000000 30.592346 0.000000
							}
						}
						JOINT mixamorig:LeftEye
						{
							OFFSET 6.741500 18.382690 16.401899
							CHANNELS 3 Xrotation Yrotation Zrotation
							End Site
							{
								OFFSET 0.000000 30.592346 0.000000
							}
						}
					}
				}
				JOINT mixamorig:LeftShoulder
				{
					OFFSET 11.924900 18.230499 1.425400
					CHANNELS 3 Xrotation Yrotation Zrotation
					JOINT mixamorig:LeftArm
					{
						OFFSET 25.435989 -0.697632 -5.229300
						CHANNELS 3 Xrotation Yrotation Zrotation
						JOINT mixamorig:LeftForeArm
						{
							OFFSET 54.684776 0.000000 0.000000
							CHANNELS 3 Xrotation Yrotation Zrotation
							JOINT mixamorig:LeftHand
							{
								OFFSET 55.098175 0.000000 0.000000
								CHANNELS 3 Xrotation Yrotation Zrotation
								JOINT mixamorig:LeftHandMiddle1
								{
									OFFSET 23.369751 0.000000 0.000000
									CHANNELS 3 Xrotation Yrotation Zrotation
									JOINT mixamorig:LeftHandMiddle2
									{
										OFFSET 6.378677 0.000000 0.000000
										CHANNELS 3 Xrotation Yrotation Zrotation
										JOINT mixamorig:LeftHandMiddle3
										{
											OFFSET 6.148331 0.000000 0.000000
											CHANNELS 3 Xrotation Yrotation Zrotation
											JOINT mixamorig:LeftHandMiddle4
											{
												OFFSET 6.582504 0.000000 0.000000
												CHANNELS 3 Xrotation Yrotation Zrotation
												End Site
												{
													OFFSET -1.168900 6.395691 1.028606
												}
											}
										}
									}
								}
								JOINT mixamorig:LeftHandThumb1
								{
									OFFSET 7.235672 -3.848206 5.434273
									CHANNELS 3 Xrotation Yrotation Zrotation
									JOINT mixamorig:LeftHandThumb2
									{
										OFFSET 6.568451 -3.792297 3.792300
										CHANNELS 3 Xrotation Yrotation Zrotation
										JOINT mixamorig:LeftHandThumb3
										{
											OFFSET 6.063080 -3.500519 3.500518
											CHANNELS 3 Xrotation Yrotation Zrotation
											JOINT mixamorig:LeftHandThumb4
											{
												OFFSET 4.793182 -2.767334 2.767349
												CHANNELS 3 Xrotation Yrotation Zrotation
												End Site
												{
													OFFSET 0.101639 6.054260 1.275483
												}
											}
										}
									}
								}
								JOINT mixamorig:LeftHandIndex1
								{
									OFFSET 23.101074 -0.309540 4.992809
									CHANNELS 3 Xrotation Yrotation Zrotation
									JOINT mixamorig:LeftHandIndex2
									{
										OFFSET 6.226883 0.000000 0.000000
										CHANNELS 3 Xrotation Yrotation Zrotation
										JOINT mixamorig:LeftHandIndex3
										{
											OFFSET 6.094330 0.000000 0.000000
											CHANNELS 3 Xrotation Yrotation Zrotation
											JOINT mixamorig:LeftHandIndex4
											{
												OFFSET 5.482605 0.000000 0.000000
												CHANNELS 3 Xrotation Yrotation Zrotation
												End Site
												{
													OFFSET -1.427902 5.233032 0.797164
												}
											}
										}
									}
								}
								JOINT mixamorig:LeftHandRing1
								{
									OFFSET 22.299240 0.021149 -3.964172
									CHANNELS 3 Xrotation Yrotation Zrotation
									JOINT mixamorig:LeftHandRing2
									{
										OFFSET 6.321869 0.000000 0.000000
										CHANNELS 3 Xrotation Yrotation Zrotation
										JOINT mixamorig:LeftHandRing3
										{
											OFFSET 5.899796 0.000000 0.000000
											CHANNELS 3 Xrotation Yrotation Zrotation
											JOINT mixamorig:LeftHandRing4
											{
												OFFSET 6.517899 0.000000 0.000000
												CHANNELS 3 Xrotation Yrotation Zrotation
												End Site
												{
													OFFSET -1.637299 6.232208 0.980890
												}
											}
										}
									}
								}
								JOINT mixamorig:LeftHandPinky1
								{
									OFFSET 20.463791 -0.302338 -8.562233
									CHANNELS 3 Xrotation Yrotation Zrotation
									JOINT mixamorig:LeftHandPinky2
									{
										OFFSET 6.908646 0.000000 0.000000
										CHANNELS 3 Xrotation Yrotation Zrotation
										JOINT mixamorig:LeftHandPinky3
										{
											OFFSET 4.622849 0.000000 0.000000
											CHANNELS 3 Xrotation Yrotation Zrotation
											JOINT mixamorig:LeftHandPinky4
											{
												OFFSET 5.216080 0.000000 0.000000
												CHANNELS 3 Xrotation Yrotation Zrotation
												End Site
												{
													OFFSET -0.606308 5.116241 0.814926
												}
											}
										}
									}
								}
							}
						}
					}
				}
				JOINT mixamorig:RightShoulder
				{
					OFFSET -12.001300 18.284088 1.348900
					CHANNELS 3 Xrotation Yrotation Zrotation
					JOINT mixamorig:RightArm
					{
						OFFSET -25.308500 -0.751312 -5.164599
						CHANNELS 3 Xrotation Yrotation Zrotation
						JOINT mixamorig:RightForeArm
						{
							OFFSET -54.684429 0.000000 0.000000
							CHANNELS 3 Xrotation Yrotation Zrotation
							JOINT mixamorig:RightHand
							{
								OFFSET -55.150291 0.000000 0.000000
								CHANNELS 3 Xrotation Yrotation Zrotation
								JOINT mixamorig:RightHandMiddle1
								{
									OFFSET -23.317566 0.000000 0.000000
									CHANNELS 3 Xrotation Yrotation Zrotation
									JOINT mixamorig:RightHandMiddle2
									{
										OFFSET -6.378403 0.000000 0.000000
										CHANNELS 3 Xrotation Yrotation Zrotation
										JOINT mixamorig:RightHandMiddle3
										{
											OFFSET -6.148193 0.000000 0.000000
											CHANNELS 3 Xrotation Yrotation Zrotation
											JOINT mixamorig:RightHandMiddle4
											{
												OFFSET -6.583389 0.000000 0.000000
												CHANNELS 3 Xrotation Yrotation Zrotation
												End Site
												{
													OFFSET 1.171692 6.395905 1.029786
												}
											}
										}
									}
								}
								JOINT mixamorig:RightHandThumb1
								{
									OFFSET -7.190521 -3.860474 5.435846
									CHANNELS 3 Xrotation Yrotation Zrotation
									JOINT mixamorig:RightHandThumb2
									{
										OFFSET -6.567429 -3.791718 3.791708
										CHANNELS 3 Xrotation Yrotation Zrotation
										JOINT mixamorig:RightHandThumb3
										{
											OFFSET -6.062469 -3.500153 3.500166
											CHANNELS 3 Xrotation Yrotation Zrotation
											JOINT mixamorig:RightHandThumb4
											{
												OFFSET -4.792618 -2.767029 2.767022
												CHANNELS 3 Xrotation Yrotation Zrotation
												End Site
												{
													OFFSET -0.100327 6.053253 1.276754
												}
											}
										}
									}
								}
								JOINT mixamorig:RightHandIndex1
								{
									OFFSET -23.048981 -0.310791 4.992554
									CHANNELS 3 Xrotation Yrotation Zrotation
									JOINT mixamorig:RightHandIndex2
									{
										OFFSET -6.227539 0.000000 0.000000
										CHANNELS 3 Xrotation Yrotation Zrotation
										JOINT mixamorig:RightHandIndex3
										{
											OFFSET -6.095047 0.000000 0.000000
											CHANNELS 3 Xrotation Yrotation Zrotation
											JOINT mixamorig:RightHandIndex4
											{
												OFFSET -5.484772 0.000000 0.000000
												CHANNELS 3 Xrotation Yrotation Zrotation
												End Site
												{
													OFFSET 1.420593 5.237305 0.797056
												}
											}
										}
									}
								}
								JOINT mixamorig:RightHandRing1
								{
									OFFSET -22.246323 0.020569 -3.963762
									CHANNELS 3 Xrotation Yrotation Zrotation
									JOINT mixamorig:RightHandRing2
									{
										OFFSET -6.322128 0.000000 0.000000
										CHANNELS 3 Xrotation Yrotation Zrotation
										JOINT mixamorig:RightHandRing3
										{
											OFFSET -5.900024 0.000000 0.000000
											CHANNELS 3 Xrotation Yrotation Zrotation
											JOINT mixamorig:RightHandRing4
											{
												OFFSET -6.518356 0.000000 0.000000
												CHANNELS 3 Xrotation Yrotation Zrotation
												End Site
												{
													OFFSET 1.636398 6.232697 0.982186
												}
											}
										}
									}
								}
								JOINT mixamorig:RightHandPinky1
								{
									OFFSET -20.411011 -0.303314 -8.561701
									CHANNELS 3 Xrotation Yrotation Zrotation
									JOINT mixamorig:RightHandPinky2
									{
										OFFSET -6.907349 0.000000 0.000000
										CHANNELS 3 Xrotation Yrotation Zrotation
										JOINT mixamorig:RightHandPinky3
										{
											OFFSET -4.623840 0.000000 0.000000
											CHANNELS 3 Xrotation Yrotation Zrotation
											JOINT mixamorig:RightHandPinky4
											{
												OFFSET -5.218353 0.000000 0.000000
												CHANNELS 3 Xrotation Yrotation Zrotation
												End Site
												{
													OFFSET 0.602097 5.118835 0.816273
												}
											}
										}
									}
								}
							}
						}
					}
				}
			}
		}
	}
	JOINT mixamorig:LeftUpLeg
	{
		OFFSET 18.168400 -13.561905 -0.039000
		CHANNELS 3 Xrotation Yrotation Zrotation
		JOINT mixamorig:LeftLeg
		{
			OFFSET 0.577358 -80.825211 -3.695000
			CHANNELS 3 Xrotation Yrotation Zrotation
			JOINT mixamorig:LeftFoot
			{
				OFFSET -0.577356 -83.370262 -6.520700
				CHANNELS 3 Xrotation Yrotation Zrotation
				JOINT mixamorig:LeftToeBase
				{
					OFFSET 0.750401 -20.798306 25.135401
					CHANNELS 3 Xrotation Yrotation Zrotation
					JOINT mixamorig:LeftToe_End
					{
						OFFSET -0.000500 0.001200 19.917799
						CHANNELS 3 Xrotation Yrotation Zrotation
						End Site
						{
							OFFSET 0.000000 19.917805 0.000000
						}
					}
				}
			}
		}
	}
	JOINT mixamorig:RightUpLeg
	{
		OFFSET -18.162500 -13.585098 -0.041000
		CHANNELS 3 Xrotation Yrotation Zrotation
		JOINT mixamorig:RightLeg
		{
			OFFSET -0.595024 -80.945297 -3.631900
			CHANNELS 3 Xrotation Yrotation Zrotation
			JOINT mixamorig:RightFoot
			{
				OFFSET 0.595024 -83.218193 -6.561200
				CHANNELS 3 Xrotation Yrotation Zrotation
				JOINT mixamorig:RightToeBase
				{
					OFFSET -0.753601 -20.807106 25.115000
					CHANNELS 3 Xrotation Yrotation Zrotation
					JOINT mixamorig:RightToe_End
					{
						OFFSET 0.000299 0.001700 19.918200
						CHANNELS 3 Xrotation Yrotation Zrotation
						End Site
						{
							OFFSET 0.000000 19.918203 0.000000
						}
					}
				}
			}
		}
	}
}
MOTION
Frames: 4
Frame Time: 0.033333
-12.080448 20.799622 -21.637619 -76.500250 9.857653 12.592656 12.010214 -1.631047 -1.273915 24.027557 -2.957716 -1.514106 24.027566 -2.957719 -1.514109 21.231728 -0.640771 5.040288 -0.489660 -6.026786 5.648277 -0.000000 0.000000 0.000000 -0.000000 0.000000 0.000000 -0.000000 0.000000 0.000000 2.684259 -12.450374 12.240766 63.384285 -9.276390 -77.759354 -3.509973 -62.106849 -0.648789 45.357131 4.787247 81.161389 -1.669177 -3.991475 -23.434314 -0.675628 -0.320402 -10.194401 -0.000001 0.000008 0.000000 -0.000000 0.000003 -0.000001 -26.395623 -8.930264 -15.955052 -9.106249 4.525103 1.618522 -0.000001 0.000009 0.000001 0.000000 -0.000002 -0.000001 -4.625226 -15.470877 -14.324887 -1.762939 -0.384896 -22.410766 -0.000012 0.000021 -0.000003 -0.000000 0.000001 -0.000002 2.233044 5.665430 -26.940976 0.299166 -1.639346 -13.516471 -0.000001 0.000001 -0.000002 0.000001 -0.000001 0.000001 13.618477 21.840107 -34.582050 -0.188905 -4.581649 -20.883679 -0.000008 0.000009 -0.000002 0.000002 0.000001 0.000003 1.454073 2.009788 -12.728534 51.243593 27.506581 76.436135 1.016773 58.463974 -3.475059 53.930791 0.652890 -66.625634 -2.324639 -0.204736 15.356258 -0.220950 -0.235211 4.147188 0.000006 0.000013 0.000003 0.000000 0.000000 0.000001 -5.933243 13.995122 3.665085 -33.348720 -14.796143 -19.484768 0.000007 0.000009 -0.000001 0.000001 0.000000 0.000000 -5.514089 6.218415 9.667658 -0.117203 -0.020738 14.927196 0.000003 0.000001 -0.000003 0.000001 0.000000 -0.000000 1.256369 -7.306586 10.827108 0.241970 1.775214 12.090719 0.000001 0.000002 -0.000001 0.000000 -0.000000 0.000001 4.729028 -17.299305 4.311116 0.827100 7.251273 24.995574 0.000001 0.000000 0.000003 -0.000001 -0.000001 -0.000001 -86.706752 2.945666 5.610252 85.221964 0.081886 -2.724671 -16.385907 2.821031 2.016923 1.274334 -0.024435 0.059667 -0.000000 -0.000002 0.000000 -54.486902 2.401585 -11.708778 64.703502 -0.501440 2.202064 35.515382 -6.484833 -5.296868 -4.646312 -0.157501 0.426755 -0.000001 -0.000000 -0.000000 
-12.041603 21.804749 -21.364380 -76.316784 10.222777 12.851921 11.809640 -1.689021 -1.229173 23.627081 -3.111224 -1.445393 23.627081 -3.111227 -1.445394 22.517556 -0.574303 4.941047 -0.207148 -5.808121 5.102739 0.000000 0.000000 -0.000000 0.000000 0.000000 -0.000000 0.000000 0.000000 -0.000000 2.684259 -12.450374 12.240767 63.307459 -9.404879 -77.836289 -3.516953 -61.258000 -0.631860 45.648186 4.414169 81.053609 -1.653747 -4.051419 -23.171294 -0.670147 -0.315227 -10.124770 -0.000002 0.000006 -0.000001 0.000001 -0.000001 -0.000001 -26.395620 -8.930263 -15.955052 -9.106255 4.525103 1.618525 0.000001 0.000010 0.000002 0.000000 0.000001 0.000001 -4.606326 -15.637520 -14.172469 -1.752154 -0.380575 -22.325354 -0.000014 0.000023 0.000001 0.000001 0.000000 -0.000002 2.183413 5.632224 -26.533123 0.298140 -1.635747 -13.473159 -0.000002 -0.000000 -0.000002 -0.000002 -0.000002 0.000004 13.461204 21.993172 -34.047161 -0.184115 -4.586474 -20.947398 -0.000007 0.000015 0.000003 -0.000004 -0.000002 0.000002 1.454074 2.009788 -12.728533 51.674278 27.289261 76.584466 1.366937 58.182611 -3.538873 53.914532 0.510135 -66.670583 -2.369777 -0.144447 15.700721 -0.204966 -0.249756 3.915198 0.000005 0.000013 0.000004 0.000001 0.000000 -0.000000 -6.561277 14.265805 3.642673 -32.691010 -14.533780 -18.946612 0.000005 0.000009 -0.000001 -0.000002 -0.000001 -0.000001 -5.580765 6.350075 9.745924 -0.117203 -0.020739 14.927194 0.000002 0.000001 -0.000004 0.000001 -0.000001 -0.000003 1.275922 -7.503675 11.009444 0.240255 1.766572 12.010900 0.000001 0.000002 -0.000004 -0.000002 -0.000000 0.000001 4.900786 -16.932194 5.276358 0.821213 7.221977 24.798052 -0.000001 0.000003 0.000000 -0.000001 0.000000 -0.000000 -83.101429 2.451575 6.459337 84.944672 0.694807 -2.688714 -16.640960 1.919616 1.741538 2.652008 -0.022305 0.056470 0.000000 -0.000000 -0.000000 -54.114960 3.200956 -11.570364 64.572772 -0.422724 2.200611 36.531673 -6.725392 -4.040623 -4.408537 -0.159049 0.427749 0.000000 -0.000000 0.000000 
-11.918060 22.739777 -21.166580 -76.192147 10.590189 12.867293 11.590995 -1.787111 -1.204105 23.191233 -3.324889 -1.390857 23.191253 -3.324892 -1.390856 23.998087 -0.435465 5.174582 -0.091626 -5.298798 4.450139 0.000000 0.000000 -0.000000 0.000000 0.000000 -0.000000 0.000000 0.000000 -0.000000 2.684260 -12.450374 12.240767 63.699123 -9.334286 -78.189151 -3.062962 -60.978133 -0.462104 45.717509 4.475610 80.942803 -1.666891 -4.095919 -23.141444 -0.666018 -0.311331 -10.072353 -0.000004 0.000011 -0.000000 0.000002 0.000002 -0.000004 -26.395630 -8.930265 -15.955054 -9.106250 4.525106 1.618524 -0.000001 0.000007 0.000000 0.000000 -0.000002 -0.000001 -4.659610 -15.685794 -14.288267 -1.747346 -0.378610 -22.287399 -0.000012 0.000021 -0.000002 -0.000002 0.000001 -0.000003 2.186614 5.637519 -26.527471 0.297491 -1.633469 -13.445867 -0.000001 -0.000001 -0.000000 -0.000001 -0.000001 -0.000000 13.458659 22.078161 -33.917681 -0.180374 -4.590211 -20.996987 -0.000007 0.000009 0.000003 -0.000003 0.000000 0.000001 1.454074 2.009788 -12.728533 52.165744 26.902761 76.365634 1.770399 58.126542 -3.651727 53.997843 0.643974 -66.245499 -2.401601 -0.105405 15.946776 -0.192971 -0.260740 3.740592 0.000006 0.000012 0.000004 -0.000001 -0.000000 -0.000001 -7.113328 14.475840 3.631777 -32.028174 -14.269968 -18.402726 0.000003 0.000009 -0.000001 -0.000001 -0.000001 -0.000001 -5.627654 6.413286 9.850325 -0.117204 -0.020740 14.927196 0.000003 0.000003 -0.000002 0.000002 0.000002 -0.000003 1.288996 -7.564224 11.245255 0.240019 1.765369 11.999914 0.000002 0.000002 -0.000000 -0.000001 -0.000001 0.000002 4.986526 -16.688225 5.805810 0.817105 7.201812 24.661906 0.000000 0.000001 0.000003 -0.000001 0.000001 -0.000001 -79.240248 2.106307 7.303330 83.839145 1.534281 -2.626117 -16.631256 0.949066 1.065405 2.747750 -0.022074 0.056250 -0.000000 0.000001 -0.000000 -53.779362 3.702999 -11.395135 64.580217 -0.397125 2.200567 36.928084 -7.012721 -3.016940 -3.998855 -0.161704 0.429482 -0.000002 -0.000000 -0.000000 
-11.724487 23.261108 -20.903702 -76.068787 11.009612 12.827803 11.430507 -1.910990 -1.196953 22.871956 -3.578348 -1.357807 22.871957 -3.578351 -1.357809 24.905033 -0.296670 5.471148 -0.588565 -4.807098 3.993843 0.000000 -0.000000 -0.000000 0.000000 -0.000000 -0.000000 0.000000 -0.000000 -0.000000 2.684260 -12.450374 12.240768 64.318512 -9.129434 -78.616099 -2.460544 -61.099717 -0.285648 45.644751 4.724364 81.068451 -1.699071 -4.135120 -23.250978 -0.663481 -0.308907 -10.040168 -0.000002 0.000007 -0.000000 -0.000000 0.000001 -0.000003 -26.395633 -8.930265 -15.955052 -9.106249 4.525104 1.618524 -0.000001 0.000008 0.000001 0.000000 -0.000001 -0.000000 -4.685897 -15.637689 -14.388697 -1.739953 -0.375647 -22.228938 -0.000010 0.000020 0.000003 -0.000001 0.000001 -0.000000 2.161192 5.602551 -26.467809 0.296498 -1.629985 -13.404054 0.000001 0.000002 -0.000002 0.000001 0.000002 -0.000002 13.424554 22.139635 -33.762011 -0.178370 -4.592227 -21.023724 -0.000006 0.000015 0.000002 -0.000002 0.000001 0.000002 1.454075 2.009788 -12.728536 52.579127 26.511265 76.010566 2.028915 58.143529 -3.690712 54.130240 0.973161 -65.894660 -2.412069 -0.073569 15.972570 -0.184489 -0.268541 3.616934 0.000005 0.000013 0.000001 0.000001 0.000000 -0.000002 -7.459125 14.557066 3.634304 -31.582149 -14.092798 -18.035570 0.000009 0.000009 -0.000000 0.000002 -0.000000 -0.000001 -5.625648 6.409880 9.845320 -0.117202 -0.020738 14.927192 0.000002 0.000002 -0.000004 0.000001 0.000000 0.000000 1.292791 -7.569000 11.334304 0.237301 1.751799 11.874366 0.000000 0.000003 -0.000000 0.000000 -0.000000 0.000001 5.036184 -16.586582 6.097630 0.812561 7.179811 24.513342 0.000000 0.000003 0.000004 0.000001 0.000000 0.000002 -75.556857 1.949200 8.082405 82.138619 2.254085 -2.554359 -16.298228 0.277931 0.276799 1.654212 -0.023661 0.058811 -0.000000 0.000001 -0.000001 -53.664400 3.863575 -11.458280 64.586016 -0.352225 2.201781 37.499436 -6.945724 -2.250121 -3.748814 -0.163325 0.430534 0.000003 0.000000 -0.000000 
